<svg xmlns="http://www.w3.org/2000/svg" xmlns:xlink="http://www.w3.org/1999/xlink" version="1.1" id="Layer_1" x="0px" y="0px" viewBox="0 0 16 16" style="enable-background:new 0 0 16 16;" xml:space="preserve">
<style type="text/css">
	.st0{fill:#FFFFFF;}
	.st1{fill:none;stroke:#000000;stroke-miterlimit:10;}
	.st2{fill:#6E6E6E;}
	.st3{fill:none;stroke:#6E6E6E;stroke-width:0.75;stroke-miterlimit:10;}
</style>
<rect x="5.8" y="1.2" class="st2" width="8.5" height="0.8"/>
<rect x="5.5" y="7.6" class="st2" width="8.5" height="0.8"/>
<rect x="5.8" y="14" class="st2" width="8.5" height="0.8"/>
<rect x="0.4" y="4.8" class="st3" width="15.1" height="6.4"/>
<path class="st2" d="M2.8,13c-0.8,0-1.4,0.6-1.4,1.4c0,0.8,0.6,1.4,1.4,1.4s1.4-0.6,1.4-1.4C4.2,13.6,3.6,13,2.8,13z M2.9,15.1  c-0.4,0-0.7-0.3-0.7-0.7s0.3-0.7,0.7-0.7c0.4,0,0.7,0.3,0.7,0.7S3.2,15.1,2.9,15.1z"/>
<path class="st2" d="M2.8,6.6c-0.8,0-1.4,0.6-1.4,1.4s0.6,1.4,1.4,1.4s1.4-0.6,1.4-1.4C4.2,7.3,3.6,6.6,2.8,6.6z M2.9,8.8  c-0.4,0-0.7-0.3-0.7-0.7c0-0.4,0.3-0.7,0.7-0.7c0.4,0,0.7,0.3,0.7,0.7C3.5,8.5,3.2,8.8,2.9,8.8z"/>
<path class="st2" d="M2.8,0.2c-0.8,0-1.4,0.6-1.4,1.4S2.1,3,2.8,3s1.4-0.6,1.4-1.4C4.2,0.8,3.6,0.2,2.8,0.2z M2.9,2.3  C2.5,2.3,2.2,2,2.2,1.6s0.3-0.7,0.7-0.7c0.4,0,0.7,0.3,0.7,0.7S3.2,2.3,2.9,2.3z"/>
</svg>
